<svg width="18" height="22" viewBox="0 0 18 22" fill="none" xmlns="http://www.w3.org/2000/svg">
<path d="M11.7404 8L11.3942 17M6.60578 17L6.25963 8M16.2277 4.79057C16.5696 4.84221 16.9104 4.89747 17.25 4.95629M16.2277 4.79057L15.1598 18.6726C15.0696 19.8448 14.0922 20.75 12.9164 20.75H5.08359C3.90788 20.75 2.93039 19.8448 2.84021 18.6726L1.77237 4.79057M16.2277 4.79057C15.0812 4.61744 13.9215 4.48485 12.75 4.39432M0.750015 4.95629C1.08959 4.89747 1.43039 4.84221 1.77237 4.79057M1.77237 4.79057C2.91879 4.61744 4.07851 4.48485 5.25002 4.39432M12.75 4.39432V3.47819C12.75 2.29882 11.8394 1.31423 10.6606 1.27652C10.1092 1.25889 9.55566 1.25 9.00002 1.25C8.44437 1.25 7.89079 1.25889 7.33943 1.27652C6.16067 1.31423 5.25002 2.29882 5.25002 3.47819V4.39432M12.75 4.39432C11.5126 4.2987 10.262 4.25 9.00002 4.25C7.73805 4.25 6.48746 4.2987 5.25002 4.39432" stroke="#9CA3AF" stroke-width="1.5" stroke-linecap="round" stroke-linejoin="round"/>
</svg>
